<?xml version="1.0" encoding="UTF-8"?>
<svg id="Layer_1" data-name="Layer 1" xmlns="http://www.w3.org/2000/svg" viewBox="0 0 1076.92 2393.12">
  <path d="M2.5,6.25s0,2382.83,0,2382.83C81.33,2460.87,8.31-2.71,32.38,6.27c37.12,12.98,37.12,55.98,37.12,12.98C99.24-19.04,10.84,2486.07,102.43,2366.24,136.33,2308.98,33.51-104.94,145.6,6.22c18.08,35.29-44.13,998.53,29.86,906.03,.04-43.01,.04-896.51,.04-896.51,73.03-57.63,10.12,902.2,30.03,896.64,104.03,81.41-29.61-970.37,59.97-893.14,22.35,22.47-47.24,984.51,32.96,900.02,30.32-43.53-58.11-980.06,44-897.03,.05,30.01,.05,900.17,.05,900.17,119.82,93.89-39.65-1010.07,83.01-876.17,15.13,37.35-38.6,966.47,26.96,883.02,.04-33.02,.04-893.52,.04-893.52,0,0,30-29.5,30,.5,0,30,0,886.17,0,886.17,0,0,36,52.83,36,9.83,15.28-52.07-39.84-1021.37,40.98-890,18.8,59.08-40.81,987.73,28.98,894.02,19.68-42.78-41.19-997.18,27-897.03,.04,47.01,.04,893.18,.04,893.18,96.08,87.44,14.32-905.51,40.04-896.64-.04-.02,26.96-29.52,26.96,.48V942.41c80.74,62.26,10.81-897.79,33.04-893.31,98.42-95.23-28.82,1016.13,62.97,897.15,0-37,0-913.83,0-913.83,74.52-50.65,9.05,924.2,30.04,919.97,74.39,89.27,9.1-925.67,30-913.29,92.52-77.95-31.08,1028.06,59.97,917.15,0-34,0-920.5,0-920.5,89.84-86.82,12.57,925.56,37.04,916.65,67.83,87.36,7.57-930.43,26.99-916.63,32.96,3.48,32.96-29.52,32.96,3.48,23.5,42.24-48.28,1032.9,29.95,936.99,22.58-63.48-48.74-1029.15,34.01-940.98-72.48,1157.54,351.1,1011.79-876.94,916.96-24.01,14.02-81.01,54.02-57.01,54.02,168.69,4.14,737.77,37.39,903,46,109.8,90.29-891.09-35.18-875.98-9.96-118.33,140.24,1008.29-1.05,892.98,119.96-35.5,15.29-1015.06-99.93-917.02,13.95,24.02,.04,931.24,22.54,931.24,22.54,93.57,111.59-936.05-5.62-931.2,23.55-125.66,153.41,1043.17-20.89,909.99,103.96-44.61,20.25-965.92-56.88-916,32.94,42.56,33.69,984.01-52.86,949.29,39.84-16.29-2.79-953.29-2.79-953.29-2.79-54.9,78.03,924.16,15.42,923.98,36.04,93.84,99.38-929.5,.17-923.96,30.02-47.27,96.19,1048.31-23.34,913.99,93.94-38.34,22.61-1000.76-75.86-907.03,22.96,20.02-2.96,930.02,13.04,930.02,13.04,79.91,106.48-930.36-.53-926.98,27.05-44.09,77.02,928.98,31.95,929.96,52.99,.02-.04,14.02,45.96-12.98,39.96-27-6-917-20-917-20-87.84,109.1,928.07,28.51,926.98,57.05,66.63,118.28-1039.46-56.32-919.99,76.95,27,3,920,0,920,0,64.14,81.76-932.56,12.88-926.98,36.04-44.37,102.27,1007.33-45.57,923.98,63.95-32.41,17.73-1000.33-45.84-920.03,45.96,19.95,15.21,999.66-52.53,920.04,17-27.1,25.21-1024.1-34.08-910.04,66.99,14.48,13.58,1086.06-85.37,913.04,20-19.25,1.16-1035.69-38.9-903.04,56,20.02-2.95,880.02-22.95,880.02-22.95,147.77,96.77-1040.21,2.29-894,90,31,0,917-20,917-20,79.4,100.52-904.24,39.19-899.98,67.05-151.08,123.5,921.04-21.32,902.96,10,167.19,110.8-1049.67,18.07-902.98,105.96,61.22,15.04,992.14-73.13,913.02,19.96-36.02-12.98-670.02-2.98-670.02-2.98" style="fill: none; stroke: #000; stroke-miterlimit: 10; stroke-width: 5px;"/>
</svg>